<?xml version="1.0" encoding="UTF-8" standalone="no"?>
<!-- Created with Inkscape (http://www.inkscape.org/) -->

<svg
    width="500"
    height="500"
    viewBox="0 0 132.29167 132.29167"
    version="1.1"
    id="svg1"
    xmlns="http://www.w3.org/2000/svg"
    xmlns:svg="http://www.w3.org/2000/svg">
    <defs
    id="defs1" />
    <path
    style="font-weight:500;font-size:90.3111px;font-family:Ubuntu;-inkscape-font-specification:'Ubuntu, Medium';stroke-width:11.194"
    d="m 59.420463,82.717922 h -6.730981 m 9.621025,-9.211732 h 13.85986 C 74.24373,68.147731 72.377301,63.150517 70.571079,58.514548 c -1.806222,-4.63597 -3.371614,-8.489243 -4.696177,-11.559821 -1.38477,3.190993 -2.980266,7.07437 -4.786488,11.650132 -1.746015,4.575762 -3.58234,9.542872 -6.953954,19.507197 -2.287881,7.134577 -3.160888,9.633184 -4.063999,12.101687 L 47.54175,97.43863 H 35.710996 c 2.348089,-6.683021 4.575762,-12.854279 6.683021,-18.513774 2.107259,-5.659495 4.154311,-11.017954 6.141155,-16.075376 2.047051,-5.057421 4.063999,-9.874013 6.050843,-14.449775 1.986845,-4.575762 4.033896,-9.091317 6.141155,-13.546664 h 10.74702 c 2.107259,4.455347 4.154311,8.970902 6.141155,13.546664 1.986844,4.575762 3.973688,9.392354 5.960532,14.449775 2.047052,5.057422 4.124207,10.415881 6.231466,16.075376 2.167466,5.659495 4.425243,11.830753 6.773332,18.513774 H 84.298366 C 83.455463,94.970127 82.582455,92.531727 81.679344,90.123431 80.776233,87.715136 79.903226,85.246633 79.060322,82.717922 H 59.420463"
    id="text1"
    aria-label="A" />
    <style>
        <!-- light mode -->
        path {
            fill: #000000;
        }
        <!-- dark mode -->
        @media (prefers-color-scheme: dark) {
            path {
                fill: #ffffff;
            }
        }
    </style>
</svg>
